<svg id="add" xmlns="http://www.w3.org/2000/svg" width="28.439" height="28.87" viewBox="0 0 28.439 28.87">
  <g id="Group_762" data-name="Group 762" transform="translate(0 0)">
    <path id="Path_556" data-name="Path 556" d="M14.275,0a14.436,14.436,0,0,0,0,28.87A14.387,14.387,0,0,0,28.439,14.379,14.289,14.289,0,0,0,14.275,0Zm7.5,16.07H15.941V22.1a1.667,1.667,0,1,1-3.333,0V16.07H6.665a1.692,1.692,0,0,1,0-3.383h5.943V6.767a1.667,1.667,0,1,1,3.333,0v5.921h5.832a1.692,1.692,0,0,1,0,3.383Z" transform="translate(0 0)" fill="#FFC006"/>
  </g>
</svg>
