<svg xmlns="http://www.w3.org/2000/svg" width="54" height="54" viewBox="0 0 54 54">
  <g id="Group_5" data-name="Group 5" transform="translate(0 0.147)">
    <circle id="Ellipse_5" data-name="Ellipse 5" cx="27" cy="27" r="27" transform="translate(0 -0.147)" fill="#FFC006"/>
    <path id="bell-solid" d="M9.324,21.313a2.664,2.664,0,0,0,2.663-2.664H6.661A2.664,2.664,0,0,0,9.324,21.313Zm8.966-6.232c-.8-.864-2.309-2.164-2.309-6.423A6.574,6.574,0,0,0,10.655,2.2V1.332a1.331,1.331,0,1,0-2.663,0V2.2A6.574,6.574,0,0,0,2.667,8.659c0,4.259-1.5,5.559-2.309,6.423a1.3,1.3,0,0,0-.358.9,1.333,1.333,0,0,0,1.336,1.332H17.312a1.333,1.333,0,0,0,1.336-1.332A1.3,1.3,0,0,0,18.29,15.081Z" transform="translate(17.799 15.733)" fill="#fff"/>
  </g>
</svg>
