<svg id="smile" xmlns="http://www.w3.org/2000/svg" width="30.677" height="33.86" viewBox="0 0 30.677 33.86">
  <ellipse id="Ellipse_26" data-name="Ellipse 26" cx="15.338" cy="16.911" rx="15.338" ry="16.911" fill="#ffd93b"/>
  <path id="Path_530" data-name="Path 530" d="M106.577,292.977c-4.491,0-8.4-3.353-9.515-8.153a.714.714,0,0,1,.462-.858.636.636,0,0,1,.777.509,8.374,8.374,0,0,0,16.55,0,.635.635,0,0,1,.778-.509.714.714,0,0,1,.462.858C114.98,289.624,111.068,292.977,106.577,292.977Z" transform="translate(-91.256 -265.165)" fill="#3e4347"/>
  <path id="Path_531" data-name="Path 531" d="M84.029,69.9c0,9.354-6.877,16.93-15.356,16.93a14.837,14.837,0,0,1-11.954-6.3,14.423,14.423,0,0,0,9.641,3.751c8.479,0,15.356-7.576,15.356-16.93a17.941,17.941,0,0,0-3.4-10.629A17.613,17.613,0,0,1,84.029,69.9Z" transform="translate(-53.353 -52.969)" fill="#f4c534"/>
  <ellipse id="Ellipse_27" data-name="Ellipse 27" cx="2.353" cy="3.083" rx="2.353" ry="3.083" transform="translate(8.009 11.486)" fill="#3e4347"/>
  <path id="Path_532" data-name="Path 532" d="M178.041,195.754c-.183.159-.485.08-.678-.178a.585.585,0,0,1-.019-.763c.182-.166.485-.088.677.17A.6.6,0,0,1,178.041,195.754Z" transform="translate(-166.618 -181.849)" fill="#5a5f63"/>
  <ellipse id="Ellipse_28" data-name="Ellipse 28" cx="2.353" cy="3.083" rx="2.353" ry="3.083" transform="translate(17.929 11.486)" fill="#3e4347"/>
  <path id="Path_533" data-name="Path 533" d="M343.4,195.754c-.183.159-.485.08-.678-.178a.585.585,0,0,1-.019-.763c.182-.166.484-.088.677.17A.6.6,0,0,1,343.4,195.754Z" transform="translate(-322.059 -181.849)" fill="#5a5f63"/>
</svg>
