<svg xmlns="http://www.w3.org/2000/svg" width="287.792" height="313.532" viewBox="0 0 287.792 313.532">
  <g id="undraw_yoga_248n" transform="translate(0)">
    <path id="Path_4243" data-name="Path 4243" d="M515.123,766.8c0,9.516-64.425,31.2-143.9,31.2s-143.9-21.685-143.9-31.2,64.425-3.26,143.9-3.26S515.123,757.287,515.123,766.8Z" transform="translate(-227.331 -484.472)" fill="#3f3d56"/>
    <path id="Path_4244" data-name="Path 4244" d="M515.123,766.8c0,9.516-64.425,31.2-143.9,31.2s-143.9-21.685-143.9-31.2,64.425-3.26,143.9-3.26S515.123,757.287,515.123,766.8Z" transform="translate(-227.331 -484.472)" opacity="0.1"/>
    <circle id="Ellipse_158" data-name="Ellipse 158" cx="6.054" cy="6.054" r="6.054" transform="translate(34.926 143.558)" fill="#090476"/>
    <circle id="Ellipse_159" data-name="Ellipse 159" cx="6.054" cy="6.054" r="6.054" transform="translate(61.47 193.386)" fill="#090476"/>
    <circle id="Ellipse_160" data-name="Ellipse 160" cx="6.054" cy="6.054" r="6.054" transform="translate(40.98 180.812)" fill="#090476"/>
    <path id="Path_4245" data-name="Path 4245" d="M348.128,561.687c-.107-.175-2.627-4.382-3.5-13.119-.8-8.016-.286-21.527,6.721-40.374,13.275-35.7-3.059-64.513-3.226-64.8l.806-.467a71.513,71.513,0,0,1,6.747,19.113,83.386,83.386,0,0,1-3.454,46.478c-13.252,35.643-3.4,52.517-3.3,52.683Z" transform="translate(-299.163 -288.892)" fill="#cfcce0"/>
    <path id="Path_4246" data-name="Path 4246" d="M330.335,419.183a6.52,6.52,0,1,1,6.52-6.52A6.52,6.52,0,0,1,330.335,419.183Zm0-12.108a5.588,5.588,0,1,0,5.588,5.588,5.588,5.588,0,0,0-5.588-5.588Z" transform="translate(-286.561 -266.312)" fill="#cfcce0"/>
    <circle id="Ellipse_161" data-name="Ellipse 161" cx="6.054" cy="6.054" r="6.054" transform="translate(56.813 162.651)" fill="#cfcce0"/>
    <path id="Path_4247" data-name="Path 4247" d="M346.013,515.667a6.52,6.52,0,1,1,6.52-6.52,6.52,6.52,0,0,1-6.52,6.52Zm0-12.108a5.588,5.588,0,1,0,5.588,5.588,5.588,5.588,0,0,0-5.588-5.588Z" transform="translate(-296.185 -325.541)" fill="#cfcce0"/>
    <path id="Path_4248" data-name="Path 4248" d="M387.019,548.231a6.52,6.52,0,1,1,6.52-6.52A6.52,6.52,0,0,1,387.019,548.231Zm0-12.108a5.588,5.588,0,1,0,5.588,5.588,5.588,5.588,0,0,0-5.588-5.588Z" transform="translate(-321.358 -345.531)" fill="#cfcce0"/>
    <circle id="Ellipse_162" data-name="Ellipse 162" cx="6.054" cy="6.054" r="6.054" transform="translate(39.117 209.685)" fill="#cfcce0"/>
    <path id="Path_4249" data-name="Path 4249" d="M362.075,709.614s-6.054-14.9,12.108-26.078Z" transform="translate(-309.453 -436.596)" fill="#cfcce0"/>
    <path id="Path_4250" data-name="Path 4250" d="M306.049,725.394s-2.755-15.847-24.08-15.711Z" transform="translate(-260.872 -452.647)" fill="#cfcce0"/>
    <path id="Path_4251" data-name="Path 4251" d="M746.327,683.713H643.283s-2.089-30.635,10.27-30.983,10.966,13.577,26.457-5.57,34.29-18.1,36.727-6.788-4.7,20.365,8.355,17.58S756.944,662.478,746.327,683.713Z" transform="translate(-482.593 -405.108)" fill="#090476"/>
    <path id="Path_4252" data-name="Path 4252" d="M771.87,683.434l-.348-.014c.811-20.169,5.035-33.129,8.436-40.448,3.693-7.948,7.251-11.165,7.286-11.2l.231.26c-.035.031-3.552,3.217-7.215,11.111C776.879,650.435,772.678,663.341,771.87,683.434Z" transform="translate(-561.398 -404.822)" fill="#f2f2f2"/>
    <path id="Path_4253" data-name="Path 4253" d="M868.478,729.556l-.334-.1a54,54,0,0,1,13.6-22.619l.234.258A53.641,53.641,0,0,0,868.478,729.556Z" transform="translate(-620.711 -450.902)" fill="#f2f2f2"/>
    <path id="Path_4254" data-name="Path 4254" d="M671,717.414l-.345-.048a37.914,37.914,0,0,0-3.41-22.161,30.512,30.512,0,0,0-5.382-7.854l.241-.251a30.9,30.9,0,0,1,5.453,7.951A38.26,38.26,0,0,1,671,717.414Z" transform="translate(-494.08 -438.784)" fill="#f2f2f2"/>
    <path id="Path_4255" data-name="Path 4255" d="M742.522,664.111H614.38l-.03-.434c-.074-1.08-1.708-26.551,6.545-35.64a9.039,9.039,0,0,1,6.606-3.17c5.38-.153,8.76,1.862,11.487,3.479,5.14,3.049,8.535,5.063,20.88-10.195,13.373-16.529,27.8-20.085,36.1-18.108,5.359,1.278,9.053,4.889,10.135,9.909a43.97,43.97,0,0,1,.436,12.807c-.28,3.839-.5,6.872,1.075,8.246,1.316,1.147,3.944,1.251,8.268.328,8.8-1.876,21.069-.271,27.229,7.689,3.314,4.282,5.925,12.066-.457,24.83Zm-127.268-.931H741.945c4.756-9.649,4.9-17.8.426-23.586-5.651-7.3-17.507-9.223-26.3-7.348-4.7,1-7.5.837-9.074-.537-1.928-1.68-1.692-4.917-1.392-9.016a43.2,43.2,0,0,0-.417-12.543c-1-4.655-4.443-8.007-9.44-9.2-8.03-1.916-22.056,1.6-35.158,17.788-12.851,15.883-16.722,13.588-22.079,10.41-2.76-1.637-5.895-3.494-10.986-3.35a8.142,8.142,0,0,0-5.943,2.865c-7.417,8.168-6.512,31.073-6.33,34.516Z" transform="translate(-464.804 -385.04)" fill="#cfcce0"/>
    <ellipse id="Ellipse_163" data-name="Ellipse 163" cx="143.896" cy="17.23" rx="143.896" ry="17.23" transform="translate(0 265.101)" fill="#3f3d56"/>
    <path id="Path_4256" data-name="Path 4256" d="M570.616,188.625s-7.194-2.569-11.818,7.708a202.668,202.668,0,0,1-11.818,21.582l4.111,1.028s1.028-7.194,3.6-8.222l-1.028,9.249s30.831,10.791,44.7-1.028l-.514-3.6s2.055.514,2.055,3.6l1.542-1.542s-1.542-3.083-6.166-7.194c-3.035-2.7-4.078-7.831-4.437-11.041a13.36,13.36,0,0,0-3.076-7.276C584.694,188.328,579.094,184.542,570.616,188.625Z" transform="translate(-423.556 -131.696)" fill="#2f2e41"/>
    <path id="Path_4257" data-name="Path 4257" d="M551.525,187.641l-7.451-9.314-5.588-19.093,21.421-22.818s4.657-17.7.466-16.765-5.122,13.97-5.122,13.97l-27.01,20.956s2.794,29.338,10.711,39.583l6.054,19.093Z" transform="translate(-412.053 -90.419)" fill="#ffb9b9"/>
    <path id="Path_4258" data-name="Path 4258" d="M624.761,187.641l7.451-9.314,5.588-19.093-21.421-22.818s-4.657-17.7-.466-16.765,5.122,13.97,5.122,13.97l27.01,20.956s-2.794,29.338-10.711,39.583l-6.054,19.093Z" transform="translate(-464.799 -90.419)" fill="#ffb9b9"/>
    <circle id="Ellipse_164" data-name="Ellipse 164" cx="12.108" cy="12.108" r="12.108" transform="translate(137.609 65.09)" fill="#ffb9b9"/>
    <path id="Path_4259" data-name="Path 4259" d="M593.223,260.815s.466,9.779-2.328,13.039-5.588,20.024,7.917,20.49,12.108-13.97,12.108-13.97l-2.794-7.917s-4.191-6.054-2.794-11.642Z" transform="translate(-449.094 -177.098)" fill="#ffb9b9"/>
    <path id="Path_4260" data-name="Path 4260" d="M565.819,541.824l10.012,3.027s8.149-4.89,8.149-.233-2.794,10.711-1.863,14.9,2.794,14.436,0,14.436-8.382-18.162-8.382-18.162l-9.314-5.123Z" transform="translate(-434.263 -349.603)" fill="#ffb9b9"/>
    <path id="Path_4261" data-name="Path 4261" d="M592.377,710.671l-3.725,14.436s-3.26,4.191,0,6.054a9.46,9.46,0,0,1,3.407,4.332,7.965,7.965,0,0,0,7.821,4.731c1.589-.132,2.928-.76,3.254-2.393a3.747,3.747,0,0,0-.721-2.935c-3.435-4.642-4.214-7.694-4.214-7.694l1.4-16.3Z" transform="translate(-448.248 -453.254)" fill="#ffb9b9"/>
    <path id="Path_4262" data-name="Path 4262" d="M576.433,222.541s4.111-5.652,7.708-6.68,4.111-6.166,4.111-6.166,9.249,10.277,14.9,10.791.514-12.332.514-12.332l-10.277-2.569-9.763,1.028-7.708,5.138Z" transform="translate(-441.321 -143.193)" fill="#2f2e41"/>
    <path id="Path_4263" data-name="Path 4263" d="M487.984,442.286l-1.863,3.725s-45.171,14.436-41.446,27.941,24.681,9.779,24.681,9.779l23.284,4.191,2.328-10.245-16.3-4.191,27.941-10.245.931,47.5-3.725,33.995,9.314.931s10.245-31.2,8.848-44.24c0,0,17.23-53.088,7.451-61S487.984,442.286,487.984,442.286Z" transform="translate(-360.62 -285.456)" fill="#2f2e41"/>
    <path id="Path_4264" data-name="Path 4264" d="M577.123,296.6l-7.266-8.782-4.922,2.256-5.122,16.3a17.305,17.305,0,0,0,.931,16.3s.931,5.588-.466,6.985-1.863,10.245-1.863,10.245l-6.054,11.642s34.461,6.054,44.706-2.328c0,0-5.376-19.82-2.116-25.874s3.725-15.335,0-19.526-7.663-15.139-7.663-15.139l-2.255-1.442Z" transform="translate(-426.86 -193.314)" fill="#cfcce0"/>
    <path id="Path_4265" data-name="Path 4265" d="M444.668,80.319H440.2V75.853H439.8v4.466H435.33v.406H439.8v4.466h.406V80.725h4.466Z" transform="translate(-267.239 -46.564)" fill="#cfcce0"/>
    <path id="Path_4266" data-name="Path 4266" d="M334.736,56.134H330.27V51.668h-.406v4.466H325.4v.406h4.466v4.466h.406V56.54h4.466Z" transform="translate(-199.754 -31.718)" fill="#cfcce0"/>
    <path id="Path_4267" data-name="Path 4267" d="M387.5,4.466h-4.466V0h-.406V4.466h-4.466v.406h4.466V9.338h.406V4.872H387.5Z" transform="translate(-232.147)" fill="#cfcce0"/>
  </g>
</svg>
